<?xml version="1.0" encoding="UTF-8"?>
<svg width="122px" height="167px" viewBox="0 0 122 167" version="1.1" xmlns="http://www.w3.org/2000/svg" xmlns:xlink="http://www.w3.org/1999/xlink">
    <title>编组</title>
    <g id="页面-2" stroke="none" stroke-width="1" fill="none" fill-rule="evenodd">
        <g id="问候语-已回答备份" transform="translate(-127.000000, -349.000000)" fill="#fff">
            <g id="编组-2" transform="translate(126.000000, 348.000000)">
                <g id="编组" transform="translate(1.000000, 0.999644)">
                    <path d="M28.0742292,135.924658 C23.9744535,131.82453 23.9752571,125.176282 28.0766398,121.075351 C32.1780226,116.975223 38.8266983,116.975223 42.9264739,121.076154 C47.0254459,125.176282 47.0246424,131.82453 42.9232596,135.924658 C38.8218769,140.025589 32.1740048,140.025589 28.0742292,135.924658" id="Fill-11"></path>
                    <path d="M54.6349869,109.36437 C51.120879,105.849721 51.1216712,100.150891 54.6373634,96.6362429 C58.1522635,93.1215947 63.8512022,93.1215947 67.3653101,96.6370349 C70.879418,100.151683 70.8778336,105.850513 67.3629335,109.36437 C63.8472413,112.879018 58.1490948,112.879018 54.6349869,109.36437" id="Fill-21"></path>
                    <path d="M80.074185,135.924658 C75.9744683,131.82453 75.9752718,125.176282 80.0765957,121.075351 C84.1779196,116.975223 90.8264998,116.975223 94.9262166,121.076154 C99.0259334,125.176282 99.0243263,131.82453 94.9230024,135.924658 C90.8216785,140.025589 84.1739018,140.025589 80.074185,135.924658" id="Fill-27"></path>
                </g>
            </g>
        </g>
    </g>
</svg>