<?xml version="1.0" encoding="UTF-8"?>
<svg width="122px" height="167px" viewBox="0 0 122 167" version="1.1" xmlns="http://www.w3.org/2000/svg" xmlns:xlink="http://www.w3.org/1999/xlink">
    <title>编组</title>
    <g id="页面-2" stroke="none" stroke-width="1" fill="none" fill-rule="evenodd">
        <g id="问候语-已回答备份" transform="translate(-127.000000, -349.000000)" fill="#fff">
            <g id="编组-2" transform="translate(126.000000, 348.000000)">
                <g id="编组" transform="translate(1.000000, 0.999644)">
                    <path d="M2.63494343,109.36437 C-0.879106465,105.849721 -0.878314299,100.150891 2.63731993,96.6362429 C6.15295416,93.1215947 11.8510067,93.1215947 15.3650566,96.6370349 C18.8791065,100.151683 18.8783143,105.850513 15.3626801,109.36437 C11.8470458,112.879018 6.14899333,112.879018 2.63494343,109.36437" id="Fill-1"></path>
                    <path d="M29.3418998,84.6571622 C26.2181942,81.5329042 26.219758,76.4678073 29.3442455,73.3435493 C32.469515,70.2192913 37.5346878,70.2192913 40.6583935,73.3435493 C43.7813172,76.4678073 43.7805353,81.5329042 40.6560478,84.6571622 C37.5307783,87.7814203 32.4656055,87.7814203 29.3418998,84.6571622" id="Fill-9"></path>
                    <path d="M56.0494816,58.9498313 C53.3161987,56.2157987 53.3169678,51.784144 56.0510198,49.0508802 C58.7858409,46.3168476 63.2172354,46.3168476 65.9505184,49.0508802 C68.6838013,51.784144 68.6830322,56.2165675 65.9489802,58.9498313 C63.2141591,61.6838639 58.7827646,61.6838639 56.0494816,58.9498313" id="Fill-15"></path>
                    <path d="M106.634987,109.36437 C103.120879,105.849721 103.121671,100.150891 106.637363,96.6362429 C110.153056,93.1215947 115.851202,93.1215947 119.36531,96.6370349 C122.879418,100.151683 122.877834,105.850513 119.362934,109.36437 C115.847241,112.879018 110.149095,112.879018 106.634987,109.36437" id="Fill-19"></path>
                    <path d="M81.3421644,84.6571622 C78.2184968,81.5329042 78.2192787,76.4678073 81.3445101,73.3435493 C84.4689595,70.2192913 89.5348523,70.2192913 92.657738,73.3435493 C95.7814055,76.4678073 95.7806236,81.5329042 92.6561742,84.6571622 C89.5309429,87.7814203 84.4658319,87.7814203 81.3421644,84.6571622" id="Fill-25"></path>
                </g>
            </g>
        </g>
    </g>
</svg>