<?xml version="1.0" encoding="UTF-8"?>
<svg width="122px" height="167px" viewBox="0 0 122 167" version="1.1" xmlns="http://www.w3.org/2000/svg" xmlns:xlink="http://www.w3.org/1999/xlink">
    <title>编组</title>
    <g id="页面-2" stroke="none" stroke-width="1" fill="none" fill-rule="evenodd">
        <g id="问候语-已回答备份" transform="translate(-127.000000, -349.000000)" fill="#fff">
            <g id="编组-2" transform="translate(126.000000, 348.000000)">
                <g id="编组" transform="translate(1.000000, 0.999644)">
                    <path d="M4.04948163,58.9498313 C1.31619869,56.2157987 1.31696776,51.784144 4.05101977,49.0508802 C6.78584086,46.3168476 11.2172354,46.3168476 13.9505184,49.0508802 C16.6838013,51.784144 16.6830322,56.2165675 13.9489802,58.9498313 C11.2141591,61.6838639 6.78276457,61.6838639 4.04948163,58.9498313" id="Fill-3"></path>
                    <path d="M108.049482,58.9498313 C105.316199,56.2157987 105.316968,51.784144 108.05102,49.0508802 C110.785072,46.3168476 115.217235,46.3168476 117.950518,49.0508802 C120.683801,51.784144 120.683032,56.2165675 117.94898,58.9498313 C115.214159,61.6838639 110.782765,61.6838639 108.049482,58.9498313" id="Fill-5"></path>
                    <path d="M30.75657,33.2425819 C28.4138008,30.8996943 28.414612,27.1003076 30.7581924,24.7574201 C33.1017729,22.4145325 36.9006608,22.4145325 39.24343,24.758231 C41.5861992,27.1011186 41.585388,30.8996943 39.2418076,33.2425819 C36.8982271,35.5862804 33.0993392,35.5862804 30.75657,33.2425819" id="Fill-7"></path>
                    <path d="M57.3173313,7.68226159 C55.5602308,5.92480268 55.5610216,3.07555308 57.3189128,1.31809418 C59.076804,-0.439364725 61.9259638,-0.439364725 63.6822735,1.31809418 C65.4393739,3.07555308 65.4393739,5.92480268 63.6814827,7.68226159 C61.9235915,9.43972049 59.0744317,9.43972049 57.3173313,7.68226159" id="Fill-17"></path>
                    <path d="M82.7565849,33.2425819 C80.4137959,30.8996943 80.4146071,27.1003076 82.7582073,24.7574201 C85.1018075,22.4145325 88.9007275,22.4145325 91.2435165,24.758231 C93.5863054,27.1011186 93.5854942,30.8996943 91.2410828,33.2425819 C88.8982938,35.5862804 85.0993738,35.5862804 82.7565849,33.2425819" id="Fill-23"></path>
                </g>
            </g>
        </g>
    </g>
</svg>