<?xml version="1.0" encoding="UTF-8"?>
<svg width="122px" height="167px" viewBox="0 0 122 167" version="1.1" xmlns="http://www.w3.org/2000/svg" xmlns:xlink="http://www.w3.org/1999/xlink">
    <title>编组</title>
    <g id="页面-2" stroke="none" stroke-width="1" fill="none" fill-rule="evenodd">
        <g id="问候语-已回答备份" transform="translate(-127.000000, -349.000000)" fill="gray" opacity="0.5">
            <g id="编组-2" transform="translate(126.000000, 348.000000)">
                <g id="编组" transform="translate(1.000000, 0.999644)">
                    <path d="M2.63494343,109.36437 C-0.879106465,105.849721 -0.878314299,100.150891 2.63731993,96.6362429 C6.15295416,93.1215947 11.8510067,93.1215947 15.3650566,96.6370349 C18.8791065,100.151683 18.8783143,105.850513 15.3626801,109.36437 C11.8470458,112.879018 6.14899333,112.879018 2.63494343,109.36437" id="Fill-1"></path>
                    <path d="M4.04948163,58.9498313 C1.31619869,56.2157987 1.31696776,51.784144 4.05101977,49.0508802 C6.78584086,46.3168476 11.2172354,46.3168476 13.9505184,49.0508802 C16.6838013,51.784144 16.6830322,56.2165675 13.9489802,58.9498313 C11.2141591,61.6838639 6.78276457,61.6838639 4.04948163,58.9498313" id="Fill-3"></path>
                    <path d="M108.049482,58.9498313 C105.316199,56.2157987 105.316968,51.784144 108.05102,49.0508802 C110.785072,46.3168476 115.217235,46.3168476 117.950518,49.0508802 C120.683801,51.784144 120.683032,56.2165675 117.94898,58.9498313 C115.214159,61.6838639 110.782765,61.6838639 108.049482,58.9498313" id="Fill-5"></path>
                    <path d="M30.75657,33.2425819 C28.4138008,30.8996943 28.414612,27.1003076 30.7581924,24.7574201 C33.1017729,22.4145325 36.9006608,22.4145325 39.24343,24.758231 C41.5861992,27.1011186 41.585388,30.8996943 39.2418076,33.2425819 C36.8982271,35.5862804 33.0993392,35.5862804 30.75657,33.2425819" id="Fill-7"></path>
                    <path d="M29.3418998,84.6571622 C26.2181942,81.5329042 26.219758,76.4678073 29.3442455,73.3435493 C32.469515,70.2192913 37.5346878,70.2192913 40.6583935,73.3435493 C43.7813172,76.4678073 43.7805353,81.5329042 40.6560478,84.6571622 C37.5307783,87.7814203 32.4656055,87.7814203 29.3418998,84.6571622" id="Fill-9"></path>
                    <path d="M28.0742292,135.924658 C23.9744535,131.82453 23.9752571,125.176282 28.0766398,121.075351 C32.1780226,116.975223 38.8266983,116.975223 42.9264739,121.076154 C47.0254459,125.176282 47.0246424,131.82453 42.9232596,135.924658 C38.8218769,140.025589 32.1740048,140.025589 28.0742292,135.924658" id="Fill-11"></path>
                    <path d="M49,155.500755 C49.001596,149.149681 54.1516236,144.000356 60.5023935,144.000356 C66.8539612,143.999558 72.0015953,149.148883 72,155.499957 C71.998404,161.851031 66.8483764,166.999558 60.4968087,167.000356 C54.1460388,167.000356 48.9984047,161.851829 49,155.500755" id="Fill-13"></path>
                    <path d="M56.0494816,58.9498313 C53.3161987,56.2157987 53.3169678,51.784144 56.0510198,49.0508802 C58.7858409,46.3168476 63.2172354,46.3168476 65.9505184,49.0508802 C68.6838013,51.784144 68.6830322,56.2165675 65.9489802,58.9498313 C63.2141591,61.6838639 58.7827646,61.6838639 56.0494816,58.9498313" id="Fill-15"></path>
                    <path d="M57.3173313,7.68226159 C55.5602308,5.92480268 55.5610216,3.07555308 57.3189128,1.31809418 C59.076804,-0.439364725 61.9259638,-0.439364725 63.6822735,1.31809418 C65.4393739,3.07555308 65.4393739,5.92480268 63.6814827,7.68226159 C61.9235915,9.43972049 59.0744317,9.43972049 57.3173313,7.68226159" id="Fill-17"></path>
                    <path d="M106.634987,109.36437 C103.120879,105.849721 103.121671,100.150891 106.637363,96.6362429 C110.153056,93.1215947 115.851202,93.1215947 119.36531,96.6370349 C122.879418,100.151683 122.877834,105.850513 119.362934,109.36437 C115.847241,112.879018 110.149095,112.879018 106.634987,109.36437" id="Fill-19"></path>
                    <path d="M54.6349869,109.36437 C51.120879,105.849721 51.1216712,100.150891 54.6373634,96.6362429 C58.1522635,93.1215947 63.8512022,93.1215947 67.3653101,96.6370349 C70.879418,100.151683 70.8778336,105.850513 67.3629335,109.36437 C63.8472413,112.879018 58.1490948,112.879018 54.6349869,109.36437" id="Fill-21"></path>
                    <path d="M82.7565849,33.2425819 C80.4137959,30.8996943 80.4146071,27.1003076 82.7582073,24.7574201 C85.1018075,22.4145325 88.9007275,22.4145325 91.2435165,24.758231 C93.5863054,27.1011186 93.5854942,30.8996943 91.2410828,33.2425819 C88.8982938,35.5862804 85.0993738,35.5862804 82.7565849,33.2425819" id="Fill-23"></path>
                    <path d="M81.3421644,84.6571622 C78.2184968,81.5329042 78.2192787,76.4678073 81.3445101,73.3435493 C84.4689595,70.2192913 89.5348523,70.2192913 92.657738,73.3435493 C95.7814055,76.4678073 95.7806236,81.5329042 92.6561742,84.6571622 C89.5309429,87.7814203 84.4658319,87.7814203 81.3421644,84.6571622" id="Fill-25"></path>
                    <path d="M80.074185,135.924658 C75.9744683,131.82453 75.9752718,125.176282 80.0765957,121.075351 C84.1779196,116.975223 90.8264998,116.975223 94.9262166,121.076154 C99.0259334,125.176282 99.0243263,131.82453 94.9230024,135.924658 C90.8216785,140.025589 84.1739018,140.025589 80.074185,135.924658" id="Fill-27"></path>
                </g>
            </g>
        </g>
    </g>
</svg>