<svg xmlns="http://www.w3.org/2000/svg" xmlns:xlink="http://www.w3.org/1999/xlink" width="160" height="160" viewBox="0 0 160 160">
  <defs>
    <linearGradient id="linear-gradient" y1="0.5" x2="1" y2="0.5" gradientUnits="objectBoundingBox">
      <stop offset="0" stop-color="#393939"/>
      <stop offset="0.991" stop-color="#5a5a5a"/>
      <stop offset="1" stop-color="#d1d2d5"/>
    </linearGradient>
    <clipPath id="clip-path">
      <path id="路径_39631" data-name="路径 39631" d="M493.5,654.8V680.2a48,48,0,0,0,24,41.57l22,12.7a48,48,0,0,0,48,0l22-12.7a48,48,0,0,0,24-41.57V654.8a48,48,0,0,0-24-41.57l-22-12.7a48,48,0,0,0-48,0l-22,12.7A48,48,0,0,0,493.5,654.8Z" fill="none"/>
    </clipPath>
    <linearGradient id="linear-gradient-2" y1="0.5" x2="1" y2="0.5" gradientUnits="objectBoundingBox">
      <stop offset="0" stop-color="#656565"/>
      <stop offset="0.498" stop-color="#4e4e4e"/>
      <stop offset="1" stop-color="#2f2f2f"/>
    </linearGradient>
  </defs>
  <g id="组_8197" data-name="组 8197" transform="translate(-100 -220)">
    <rect id="矩形_6848" data-name="矩形 6848" width="160" height="160" transform="translate(100 220)" fill="none"/>
    <g id="组_8240" data-name="组 8240" transform="translate(-387.5 -367.105)">
      <path id="路径_39625" data-name="路径 39625" d="M493.5,654.8V680.2a48,48,0,0,0,24,41.57l22,12.7a48,48,0,0,0,48,0l22-12.7a48,48,0,0,0,24-41.57V654.8a48,48,0,0,0-24-41.57l-22-12.7a48,48,0,0,0-48,0l-22,12.7A48,48,0,0,0,493.5,654.8Z" fill="#fff" opacity="0.076"/>
      <circle id="椭圆_1332" data-name="椭圆 1332" cx="10" cy="10" r="10" transform="translate(587 628)" fill="url(#linear-gradient)"/>
      <g id="组_8236" data-name="组 8236">
        <g id="组_8235" data-name="组 8235">
          <path id="路径_39626" data-name="路径 39626" d="M571.054,658.372a2.258,2.258,0,1,1-3.194,0,2.259,2.259,0,0,1,3.194,0Zm3.191-3.2a6.627,6.627,0,0,1,1.93,4.6v.2l-.006.565a.564.564,0,0,1-.571.558l-1.129-.013a.564.564,0,0,1-.558-.571l.006-.565a4.333,4.333,0,0,0-4.271-4.451h-.172l-.565.006a.565.565,0,0,1-.57-.56l-.011-1.129a.566.566,0,0,1,.559-.57l.565-.005a6.639,6.639,0,0,1,4.793,1.93Zm3.192-3.2a10.7,10.7,0,0,1,3.127,7.336l0,.251,0,.564a.567.567,0,0,1-.564.567l-1.128,0a.565.565,0,0,1-.4-.165.559.559,0,0,1-.167-.4l0-.564a8.424,8.424,0,0,0-8.223-8.461l-.225,0-.565,0a.567.567,0,0,1-.562-.568l.005-1.129a.567.567,0,0,1,.568-.562l.565,0a10.71,10.71,0,0,1,7.566,3.13Zm0,0" fill="#434343"/>
        </g>
      </g>
      <g id="组_8239" data-name="组 8239">
        <g id="组_8238" data-name="组 8238" clip-path="url(#clip-path)">
          <g id="组_8237" data-name="组 8237">
            <circle id="椭圆_1333" data-name="椭圆 1333" cx="40.002" cy="40.002" r="40.002" transform="translate(491.631 663)" fill="url(#linear-gradient-2)"/>
            <path id="路径_39627" data-name="路径 39627" d="M496.793,683.341s16.88-4.83,18.512,7.416,19.593,7.347,22.043-4.9S550.3,667.62,550.3,667.62,516.651,650.618,496.793,683.341Z" fill="#403f3f"/>
            <path id="路径_39628" data-name="路径 39628" d="M543.879,699.737s9.8,1.633,8.98,8.164-11.43,14.694-18.777,8.163,3.266-6.531,5.715-8.98S538.164,701.37,543.879,699.737Z" fill="#363636"/>
            <path id="路径_39629" data-name="路径 39629" d="M504.323,732.223s10.166-6.362,15.064-1.464,12.246,3.266,14.695,0,8.164-1.633,9.8,4.082,0,6.25,0,6.25S525.179,749.2,504.323,732.223Z" fill="#434343"/>
            <path id="路径_39630" data-name="路径 39630" d="M493.1,725.837c-11.162,0-19.262-2.18-20.664-7.41-1.964-7.33,10.755-15.116,18.511-19.1a1.633,1.633,0,0,1,1.494,2.9c-8.5,4.37-18.013,11.014-16.851,15.355,1.7,6.339,25.938,7.418,58-1.174,14.82-3.971,28.323-9.239,38.019-14.833,10.423-6.014,13.446-10.737,12.8-13.152-.678-2.527-5.987-5.164-18.848-4.981a1.669,1.669,0,0,1-1.656-1.61,1.632,1.632,0,0,1,1.61-1.655c9.13-.121,20.346,1.053,22.048,7.4,1.642,6.13-6.881,12.533-14.321,16.825-9.936,5.733-23.718,11.116-38.806,15.159C520.1,723.4,504.891,725.837,493.1,725.837Z" fill="#363434"/>
          </g>
        </g>
      </g>
      <path id="路径_39632" data-name="路径 39632" d="M634,668a8,8,0,1,1,8-8A8.009,8.009,0,0,1,634,668Zm0-12a4,4,0,1,0,4,4A4,4,0,0,0,634,656Z" fill="#434343"/>
      <path id="路径_39633" data-name="路径 39633" d="M516.75,615.75h-5.5v-5.5a2.75,2.75,0,0,0-5.5,0v5.5h-5.5a2.75,2.75,0,0,0,0,5.5h5.5v5.5a2.75,2.75,0,0,0,5.5,0v-5.5h5.5a2.75,2.75,0,0,0,0-5.5Z" fill="#434343"/>
    </g>
  </g>
</svg>
