<?xml version="1.0" encoding="UTF-8"?>
<svg width="160px" height="160px" viewBox="0 0 160 160" version="1.1" xmlns="http://www.w3.org/2000/svg" xmlns:xlink="http://www.w3.org/1999/xlink">
    <title>default-calender</title>
    <defs>
        <path d="M0,60.7007806 L0,86.1007806 C0,103.249808 9.14850679,119.096267 24,127.670781 L46,140.370781 C60.8512517,148.945155 79.1487483,148.945155 94,140.370781 L116,127.670781 C130.851493,119.096267 140,103.249808 140,86.1007806 L140,60.7007806 C140,43.5517534 130.851493,27.7052942 116,19.1307806 L94,6.43078062 C79.1487483,-2.14359354 60.8512517,-2.14359354 46,6.43078062 L24,19.1307806 C9.14850679,27.7052942 0,43.5517534 0,60.7007806 Z" id="path-1"></path>
        <linearGradient x1="100%" y1="50%" x2="0%" y2="50%" id="linearGradient-3">
            <stop stop-color="#5C5C5C" offset="0%"></stop>
            <stop stop-color="#4C4C4C" offset="35.4%"></stop>
            <stop stop-color="#303030" offset="100%"></stop>
        </linearGradient>
        <linearGradient x1="100%" y1="50%" x2="0%" y2="50%" id="linearGradient-4">
            <stop stop-color="#5C5C5C" offset="0%"></stop>
            <stop stop-color="#4C4C4C" offset="35.4%"></stop>
            <stop stop-color="#303030" offset="100%"></stop>
        </linearGradient>
    </defs>
    <g id="页面-1" stroke="none" stroke-width="1" fill="none" fill-rule="evenodd">
        <g id="日历-缺省" transform="translate(-107.000000, -374.000000)">
            <g id="default-calender" transform="translate(107.000000, 374.000000)">
                <rect id="矩形_6848" x="0" y="0" width="160" height="160"></rect>
                <g id="组_8240" transform="translate(6.000000, 6.994219)">
                    <path d="M0,60.7007806 L0,86.1007806 C0,103.249808 9.14850679,119.096267 24,127.670781 L46,140.370781 C60.8512517,148.945155 79.1487483,148.945155 94,140.370781 L116,127.670781 C130.851493,119.096267 140,103.249808 140,86.1007806 L140,60.7007806 C140,43.5517534 130.851493,27.7052942 116,19.1307806 L94,6.43078062 C79.1487483,-2.14359354 60.8512517,-2.14359354 46,6.43078062 L24,19.1307806 C9.14850679,27.7052942 0,43.5517534 0,60.7007806 Z" id="路径_39625" fill="#242424" fill-rule="nonzero"></path>
                    <g id="组_8238-Clipped">
                        <mask id="mask-2" fill="white">
                            <use xlink:href="#path-1"></use>
                        </mask>
                        <g id="路径_39631"></g>
                        <g id="编组" opacity="0.8" mask="url(#mask-2)">
                            <g transform="translate(-5.000000, 52.005781)">
                                <rect id="矩形" fill="url(#linearGradient-3)" fill-rule="nonzero" x="0" y="0" width="90" height="32" rx="6"></rect>
                                <circle id="椭圆形" fill="#696969" fill-rule="evenodd" cx="20" cy="16" r="8"></circle>
                                <rect id="矩形" fill="#656565" fill-rule="evenodd" x="36" y="11" width="20" height="4" rx="2"></rect>
                                <rect id="矩形备份-3" fill="#656565" fill-rule="evenodd" x="36" y="19" width="30" height="4" rx="2"></rect>
                            </g>
                        </g>
                        <g id="编组备份" opacity="0.24" mask="url(#mask-2)">
                            <g transform="translate(0.000000, 94.005781)">
                                <rect id="矩形" fill="url(#linearGradient-4)" fill-rule="nonzero" x="0" y="0" width="112" height="32" rx="6"></rect>
                                <circle id="椭圆形" fill="#696969" fill-rule="evenodd" cx="20" cy="16" r="8"></circle>
                                <rect id="矩形" fill="#656565" fill-rule="evenodd" x="36" y="11" width="20" height="4" rx="2"></rect>
                                <rect id="矩形备份-3" fill="#656565" fill-rule="evenodd" x="36" y="19" width="30" height="4" rx="2"></rect>
                            </g>
                        </g>
                    </g>
                    <path d="M140.5,73.9007806 C136.081722,73.9007806 132.5,70.3190586 132.5,65.9007806 C132.5,61.4825026 136.081722,57.9007806 140.5,57.9007806 C144.918278,57.9007806 148.5,61.4825026 148.5,65.9007806 C148.49504,70.3170025 144.916222,73.8958207 140.5,73.9007806 L140.5,73.9007806 Z M140.5,61.9007806 C138.290861,61.9007806 136.5,63.6916416 136.5,65.9007806 C136.5,68.1099196 138.290861,69.9007806 140.5,69.9007806 C142.709139,69.9007806 144.5,68.1099196 144.5,65.9007806 C144.5,63.6916416 142.709139,61.9007806 140.5,61.9007806 Z" id="路径_39632" fill="#434343" fill-rule="nonzero"></path>
                    <path d="M23.25,21.6507806 L17.75,21.6507806 L17.75,16.1507806 C17.75,14.6319976 16.5187831,13.4007806 15,13.4007806 C13.4812169,13.4007806 12.25,14.6319976 12.25,16.1507806 L12.25,21.6507806 L6.75,21.6507806 C5.23121694,21.6507806 4,22.8819976 4,24.4007806 C4,25.9195637 5.23121694,27.1507806 6.75,27.1507806 L12.25,27.1507806 L12.25,32.6507806 C12.25,34.1695637 13.4812169,35.4007806 15,35.4007806 C16.5187831,35.4007806 17.75,34.1695637 17.75,32.6507806 L17.75,27.1507806 L23.25,27.1507806 C24.7687831,27.1507806 26,25.9195637 26,24.4007806 C26,22.8819976 24.7687831,21.6507806 23.25,21.6507806 Z" id="路径_39633" fill="#434343" fill-rule="nonzero"></path>
                </g>
            </g>
        </g>
    </g>
</svg>